<svg width="186" height="70" viewBox="0 0 186 70" fill="none" xmlns="http://www.w3.org/2000/svg">
<path fill-rule="evenodd" clip-rule="evenodd" d="M11.7271 66.2478H11.5649C4.38157 66.2478 0.0302734 62.5013 0.0302734 56.6455C0.0302734 50.3914 4.82409 47.0432 11.7271 47.0432V44.8896H14.7361V47.0432C21.0787 47.0432 26.433 50.1554 26.433 56.6307C26.433 62.457 22.0374 66.2331 14.9131 66.2331H14.7509V69.0503H11.7419V66.2478H11.7271ZM11.5944 63.4748H11.7271V49.8457C6.80061 49.8457 3.14257 51.9697 3.14257 56.6602C3.14257 60.7165 6.12207 63.4748 11.5944 63.4748ZM14.7361 49.8309V63.46H14.8984C20.1495 63.46 23.3207 61.041 23.3207 56.6455C23.3207 52.4122 20.5034 49.8309 14.7952 49.8309H14.7214H14.7361ZM29.3535 68.5636V51.3502H32.1265V64.2565L42.5696 51.3502H45.1509V68.5636H42.3779V55.6867L31.9053 68.5636H29.3683H29.3535ZM61.8628 61.1148H51.9507V68.5636H49.1777V51.3502H51.9507V58.504H61.8628V51.3502H64.6358V68.5636H61.8628V61.1148ZM66.6713 51.3502H82.6604V53.961H76.0229V68.5636H73.2351V53.961H66.6713V51.3502Z" fill="white"/>
<path fill-rule="evenodd" clip-rule="evenodd" d="M99.1213 65.2306C97.4988 67.6348 95.0503 68.8001 92.2477 68.8001C86.7902 68.8001 83.0879 65.3191 83.0879 59.8763C83.0879 54.817 86.1264 50.9082 91.8495 50.9082C96.3777 50.9082 99.785 53.9467 99.785 58.711C99.785 59.2715 99.7556 60.0385 99.6228 60.7908H86.0674C86.2297 64.2718 88.8404 66.1746 92.351 66.1746C94.4307 66.1746 96.3187 65.0536 97.3365 63.5638L99.1213 65.2158V65.2306ZM86.0379 58.298H96.8498C96.6875 55.2152 94.7405 53.4747 91.6577 53.4747C88.4422 53.4747 86.4657 55.4955 86.0379 58.298Z" fill="white"/>
<path fill-rule="evenodd" clip-rule="evenodd" d="M110.774 59.6404L117.677 68.5347H114.211L108.886 61.6169L103.502 68.5347H100.198L107.072 59.6699L100.567 51.3361H104.033L108.989 57.6491L113.975 51.3361H117.338L110.759 59.6404H110.774ZM140.422 56.7641L149.036 68.5347H145.437L138.563 59.1684L131.69 68.5347H128.091L136.734 56.7641L128.445 45.3918H132.014L138.578 54.3599L145.112 45.3918H148.741L140.422 56.7789V56.7641ZM151.381 53.3864C152.959 51.8966 155.703 50.9378 158.255 50.9378C162.842 50.9378 165.29 53.4896 165.29 57.9146V68.5347H162.517V65.983C161.529 67.4432 159.479 68.756 156.514 68.756C152.782 68.756 150.275 66.6762 150.275 63.5049C150.275 59.7584 153.549 58.1802 158.491 58.1802C159.774 58.1802 161.662 58.4162 162.517 58.6817C162.517 55.5694 161.529 53.5486 157.93 53.5634C155.983 53.5634 154.405 54.3009 152.812 55.4809L151.381 53.4011V53.3864ZM162.517 62.8854V61.1302C161.647 60.8352 160.246 60.6287 158.859 60.6287C155.393 60.6287 153.21 61.3219 153.21 63.4017C153.21 65.1865 154.818 66.2485 157.163 66.2485C160.039 66.2485 161.913 64.2719 162.517 62.8707V62.8854ZM184.259 46.4981C181.383 47.6633 177.651 47.1913 175.173 48.3566C172.267 49.7873 171.22 52.2654 170.881 55.2449L171.014 55.2744C172.533 52.8996 175.04 51.8966 177.917 51.8966C182.666 51.8966 185.97 54.8466 185.97 60.0682C185.97 64.9947 182.445 68.8592 177.253 68.874C171.766 68.874 168.211 65.2307 168.211 58.5489C168.211 52.2949 169.465 48.2238 173.978 45.9376C177.046 44.374 180.719 44.9345 183.758 43.9463L184.259 46.4981ZM171.146 59.2864C171.146 63.5639 173.698 66.2337 177.223 66.2337C180.749 66.2337 183.035 63.6229 183.035 60.2452C183.035 56.8084 181.029 54.5516 177.327 54.5516C173.919 54.5516 171.781 56.7936 171.161 59.0504V59.3012L171.146 59.2864Z" fill="white"/>
<path fill-rule="evenodd" clip-rule="evenodd" d="M102.942 20.8176C102.853 20.8176 102.603 20.8471 102.485 20.8619C102.603 19.7704 102.617 17.8233 102.617 17.1891C102.617 16.4516 102.603 14.6226 102.485 13.5163C102.735 13.5311 103.045 13.5606 103.222 13.5606C103.384 13.5606 103.679 13.5311 103.915 13.5163C103.797 14.5931 103.783 16.4368 103.783 17.1891C103.783 17.7938 103.797 18.6494 103.812 19.0476C104.609 18.0889 107.455 14.4751 108.149 13.5311C108.296 13.5606 108.414 13.5753 108.576 13.5753C108.665 13.5753 108.975 13.5458 109.137 13.5311C109.019 14.6078 109.004 16.4516 109.004 17.2038C109.004 17.8086 109.019 19.7556 109.137 20.8766C108.93 20.8471 108.694 20.8324 108.458 20.8324C108.208 20.8324 107.913 20.8471 107.706 20.8766C107.824 19.7851 107.839 17.8381 107.839 17.2038C107.839 16.4516 107.824 15.5371 107.809 15.2273C106.821 16.2303 104.21 19.6524 103.384 20.8766C103.252 20.8324 103.119 20.8176 102.957 20.8176M100.788 15.1241H100.626C100.125 14.3128 99.4166 13.9588 98.6053 13.9588C96.909 13.9588 96.0978 15.5961 96.0978 17.1891C96.0978 19.0181 97.1155 20.4636 98.915 20.4636C99.5051 20.4636 100.051 20.3751 100.877 19.4606L101.01 19.6229L100.847 20.3309C100.154 20.7881 99.3723 21.0241 98.4726 21.0241C96.2158 21.0241 94.726 19.4606 94.726 17.2333C94.726 14.9028 96.3191 13.4131 98.6643 13.4131C99.4166 13.4131 100.243 13.5606 101.172 14.0473L100.774 15.1241H100.788ZM93.4723 15.1241H93.2953C92.7938 14.3128 92.0858 13.9588 91.2745 13.9588C89.5782 13.9588 88.767 15.5961 88.767 17.1891C88.767 19.0181 89.7847 20.4636 91.5695 20.4636C92.1595 20.4636 92.7053 20.3751 93.5313 19.4606L93.664 19.6229L93.487 20.3309C92.779 20.7881 92.012 21.0241 91.1122 21.0241C88.8555 21.0241 87.3657 19.4606 87.3657 17.2333C87.3657 14.9028 88.9587 13.4131 91.2893 13.4131C92.0415 13.4131 92.8675 13.5606 93.7968 14.0473L93.4723 15.1241ZM80.4184 17.3071C80.4184 18.9444 81.1116 20.4489 82.6309 20.4489C84.1502 20.4489 84.9909 19.0181 84.9909 17.1006C84.9909 15.5518 84.3862 13.9588 82.7489 13.9588C81.1707 13.9588 80.4184 15.5961 80.4184 17.3071ZM86.3774 17.1596C86.3774 19.3721 84.9319 21.0241 82.6752 21.0241C80.4184 21.0241 79.0466 19.3869 79.0466 17.3513C79.0466 14.9471 80.5954 13.3836 82.8079 13.3836C85.0205 13.3836 86.3775 14.9766 86.3922 17.1448L86.3774 17.1596ZM74.1201 15.3158C76.1556 15.3158 77.3356 14.5193 77.3356 12.9706C77.3356 11.5398 76.1999 11.1563 74.7986 11.1563C74.5479 11.1563 73.7218 11.171 73.5006 11.2005V15.2568C73.6923 15.2863 73.9874 15.3011 74.1201 15.3011V15.3158ZM73.5596 10.3893C74.0611 10.3893 74.7249 10.345 75.1084 10.345C77.7929 10.345 78.8254 11.1415 78.8402 12.9853C78.8402 15.3453 76.8489 16.0976 74.4889 16.0976C74.3561 16.0976 73.7956 16.0681 73.5154 16.0533V18.5609C73.5154 19.2836 73.5449 20.1686 73.6334 20.8914C73.3826 20.8619 73.1466 20.8471 72.8959 20.8471C72.6304 20.8471 72.3206 20.8619 72.0993 20.8914C72.1879 19.2984 72.2173 17.1006 72.2173 15.2716C72.2173 13.6343 72.2026 11.1563 72.0993 10.3745C72.5861 10.3745 73.2499 10.404 73.5744 10.404L73.5596 10.3893ZM61.4645 13.5901C61.612 13.5901 61.9218 13.5606 62.143 13.5458C62.025 14.6373 62.025 16.4811 62.025 16.7318H62.261C62.733 16.7318 65.1815 13.9441 65.4323 13.5606C65.624 13.5753 65.978 13.6048 66.1403 13.6048C66.2878 13.6048 66.6271 13.5753 66.8483 13.5606L63.382 16.6581C63.8245 17.1743 66.1256 19.7704 67.1728 20.8766C66.7746 20.8471 66.5238 20.8324 66.3026 20.8324C66.0371 20.8324 65.6535 20.8471 65.3438 20.8766C64.798 20.0359 63.1608 18.1036 62.2758 17.1301H62.025C62.025 17.6758 62.0398 19.7851 62.1578 20.8766C61.9513 20.8471 61.7153 20.8324 61.5088 20.8324C61.258 20.8324 60.9778 20.8471 60.7565 20.8766C60.8745 19.7851 60.8893 17.8381 60.8893 17.2038C60.8893 16.4663 60.8745 14.6373 60.7565 13.5311C60.9925 13.5606 61.3022 13.5753 61.4793 13.5753L61.4645 13.5901ZM53.1307 13.5901C53.2929 13.5901 53.588 13.5606 53.8092 13.5458C53.6912 14.6373 53.6765 16.4663 53.6765 16.5401C54.2812 16.5696 55.1662 16.5991 55.6235 16.5991C56.0807 16.5991 57.0247 16.5696 57.4377 16.5401C57.4377 16.4516 57.423 14.6226 57.305 13.5458C57.5557 13.5606 57.8655 13.5901 58.0425 13.5901C58.2047 13.5901 58.4998 13.5606 58.7358 13.5458C58.6178 14.6226 58.603 16.4663 58.603 17.2186C58.603 17.8233 58.6178 19.7704 58.7358 20.8914C58.5293 20.8619 58.2932 20.8471 58.0572 20.8471C57.8065 20.8471 57.5115 20.8619 57.305 20.8914C57.423 19.7999 57.4377 17.8528 57.4377 17.3661C56.8182 17.3218 55.948 17.2628 55.6235 17.2628C55.2252 17.2628 54.2665 17.2923 53.6765 17.3218C53.6765 17.8086 53.6912 19.7556 53.8092 20.8766C53.6027 20.8471 53.3667 20.8324 53.1307 20.8324C52.8799 20.8324 52.585 20.8471 52.3785 20.8766C52.4965 19.7851 52.5112 17.8381 52.5112 17.2038C52.5112 16.4663 52.4965 14.6373 52.3785 13.5311C52.644 13.5606 52.9537 13.5753 53.1307 13.5753V13.5901ZM49.1039 17.1301L48.1452 17.2776C47.0979 17.4398 45.9474 17.8086 45.9474 18.9001C45.9474 19.7409 46.4046 20.1981 47.3634 20.1981C47.9386 20.1981 48.5286 20.0064 49.1186 19.3869V17.1448H49.1039V17.1301ZM45.1952 14.4013C45.7704 13.7081 46.8029 13.3983 47.6732 13.3983C49.1924 13.3983 50.2544 14.1506 50.2544 15.9501V19.5344C50.2544 20.2719 50.4167 20.4489 50.7117 20.4489C50.8149 20.4489 50.9772 20.4194 51.0509 20.3899L51.1395 20.7291C50.6822 20.9651 50.2397 21.0094 50.0627 21.0094C49.5907 21.0094 49.2809 20.8029 49.1629 20.3751L49.0744 20.0654C48.2926 20.6849 47.4371 21.0094 46.7291 21.0094C45.4164 21.0094 44.5462 20.3161 44.5462 19.0919C44.5462 17.7938 45.5196 17.1743 46.8619 16.9383L48.3369 16.6581C48.8237 16.5696 49.0892 16.4221 49.0892 16.0681C49.0892 14.4898 48.4106 14.0916 47.3191 14.0916C46.4636 14.0916 45.8294 14.3423 45.3722 15.2863H45.1952V14.4013ZM38.1151 20.0359C38.4986 20.0506 38.9411 20.0654 39.3394 20.0654C41.0504 20.0654 42.0534 19.2689 42.0534 17.7791C42.0534 16.1713 40.8733 15.6551 38.1151 15.6551V20.0359ZM39.5016 10.4778C40.2981 10.4778 41.9649 10.4188 42.9089 10.345C42.8794 10.522 42.8646 10.7875 42.8646 10.876C42.8646 10.9793 42.8941 11.2005 42.9089 11.3628C42.0681 11.2448 40.6816 11.171 40.2539 11.171C39.9589 11.171 38.7788 11.2005 38.1446 11.2595V14.8881H38.8821C40.3866 14.8881 43.5726 15.1831 43.5726 17.7938C43.5726 19.9179 41.7878 20.8914 39.4426 20.8766C39.1771 20.8766 38.1888 20.8324 37.5693 20.8324C37.2891 20.8324 36.9646 20.8471 36.7286 20.8766C36.8171 19.2836 36.8466 17.0858 36.8466 15.2568C36.8466 13.6196 36.8318 11.1415 36.7286 10.345C37.6283 10.3893 39.1623 10.4778 39.5016 10.4778ZM14.7067 29.1219C7.22835 29.1219 1.1513 23.0744 1.1513 15.6108C1.1513 8.14727 7.2136 2.08498 14.7067 2.08498C22.1997 2.08498 28.262 8.13252 28.262 15.5961C28.2473 23.0596 22.1997 29.1219 14.7067 29.1219ZM14.7067 0.949219C6.57934 0.949219 0.0302734 7.51302 0.0302734 15.5961C0.0302734 23.6791 6.60886 30.2429 14.7214 30.2429C22.834 30.2429 29.3978 23.6791 29.3978 15.5961C29.3978 7.51302 22.8192 0.949219 14.7067 0.949219ZM14.7067 26.5849C15.2082 26.5849 15.5327 26.2457 15.5474 25.7884C15.6654 25.9949 15.8129 26.1424 16.0194 26.1867C16.2259 26.2309 16.4619 26.2014 16.6537 26.0982C16.8454 26.0097 17.0077 25.8622 17.1109 25.6704C17.2142 25.4787 17.1699 25.2722 17.1109 25.0362C17.3617 25.3754 17.7452 25.4639 18.1139 25.3017C18.6007 25.0657 18.7924 24.6674 18.5712 24.1954C17.9664 22.7646 17.3764 21.3634 16.7717 19.9474C16.7274 19.8146 16.6684 19.6819 16.6094 19.5491C16.5652 19.4311 16.5209 19.3574 16.4767 19.2836C16.4472 19.2394 16.3882 19.1951 16.3292 19.1509C17.2584 19.2541 17.7009 19.6229 17.9664 19.7851C17.9664 19.7851 18.0697 19.7753 18.2762 19.7556C18.3942 19.7261 18.5269 19.7409 18.6154 19.7851C18.7334 19.8441 18.8514 19.9179 18.9399 19.9916C19.2792 20.2571 19.6184 20.4931 19.9429 20.7881C20.0904 20.9209 20.2969 21.1421 20.2674 21.3486C20.2527 21.5404 19.7807 21.9681 19.648 22.1009C19.3234 22.4106 19.8102 22.9859 20.474 22.9416C20.297 22.7646 20.2674 22.6024 20.2822 22.4696C20.3412 22.4696 20.4739 22.4844 20.5919 22.3664C20.7394 22.2336 20.6805 21.8649 20.7985 21.7321C21.0345 21.4961 21.7867 21.4814 22.2439 21.4666C22.4357 21.4666 22.6422 21.4076 22.6275 21.1126C22.9077 21.1274 22.9667 21.3486 22.9667 21.5404C23.2175 21.3929 23.424 20.7439 22.5095 20.5816C22.657 20.4489 22.9225 20.3899 23.0847 20.5669C23.2322 20.3161 22.8487 19.8294 22.185 20.1096C22.185 20.1096 21.8752 19.6966 20.9755 20.7291C20.8575 20.6406 20.7394 20.5669 20.6509 20.4636C20.3117 20.1391 19.3972 19.2689 19.3972 19.2689C19.3972 18.7821 19.3087 17.8233 18.6744 17.2628C18.3942 17.0121 18.1287 16.8793 17.5387 16.7908C17.5387 16.7908 17.8189 16.3483 17.8632 16.1713C18.3647 16.6728 19.3825 16.8203 19.3825 15.9796C20.2232 16.8203 20.9902 16.3778 20.9902 15.8468C21.0197 16.1123 21.0935 16.3926 21.1672 16.6286C21.2705 16.9088 21.654 17.9856 22.6422 17.9856C22.657 18.3691 22.657 19.5934 23.837 19.8736C23.8812 19.8884 23.955 19.9031 23.9845 19.9326C24.4565 20.5226 26.4477 21.1421 26.669 20.9799C26.5215 20.8619 26.2707 20.7144 26.2265 20.0359C26.2117 19.5786 26.138 17.2038 26.138 13.8556C26.138 12.6756 26.0052 8.82578 22.1997 8.29477C21.6244 8.20627 21.0492 8.26528 20.5625 8.61928C19.8839 9.10603 19.5594 9.96154 19.9577 10.9055C19.9724 10.935 19.9724 10.9645 19.9872 11.0088C20.1199 11.2448 20.0757 11.4366 19.884 11.5988C19.5742 11.9086 19.1907 12.1298 18.7482 12.1741C18.4679 12.2036 18.2467 12.0708 18.0402 11.8938C17.6124 11.4513 17.3174 10.9498 17.2142 10.345C17.0372 9.17978 17.3322 8.60453 17.3469 8.57503C17.6567 7.95552 18.3204 7.49827 19.0727 7.42452C19.4119 6.77551 20.4149 7.02627 20.4149 7.02627C20.6657 7.07052 20.7542 7.15902 20.8132 7.27702C20.8132 7.27702 21.2557 6.61326 20.8279 6.34776C20.4149 6.08226 19.4857 5.96426 19.4857 5.96426C19.4857 5.52175 18.7629 5.19725 17.4649 5.4185C15.8867 5.69876 15.5474 5.094 15.5474 5.094C15.4884 5.84626 16.0489 6.24451 16.2407 6.33301C15.6507 6.96726 14.8099 8.28003 14.6182 10.109C14.4559 8.29478 13.6299 6.99677 13.0251 6.34776C13.2021 6.24451 13.7774 5.86101 13.7184 5.10875C13.7184 5.10875 13.3791 5.72826 11.8009 5.43325C10.5029 5.19725 9.78012 5.55125 9.78012 5.97901C9.78012 5.97901 8.85086 6.09701 8.43786 6.36251C8.0396 6.64276 8.46734 7.30652 8.46734 7.30652C8.52634 7.17377 8.61484 7.11477 8.88034 7.04102C8.88034 7.04102 9.88335 6.77551 10.2226 7.43927C10.9749 7.49827 11.6534 7.95552 11.9484 8.58978C11.9631 8.61928 12.2729 9.20928 12.0811 10.3598C11.9779 10.9645 11.6829 11.4661 11.2551 11.9086C11.0781 12.1003 10.8421 12.2183 10.5471 12.1888C10.1046 12.1446 9.72112 11.9233 9.41137 11.6136C9.24912 11.4513 9.20487 11.2595 9.32287 11.0235C9.33762 10.994 9.35236 10.9645 9.35236 10.9203C9.75061 9.97629 9.41135 9.12078 8.7476 8.63403C8.26084 8.28003 7.68561 8.22102 7.11035 8.30953C3.30483 8.85528 3.17205 12.6756 3.17205 13.8703C3.17205 17.2186 3.12781 19.5934 3.08356 20.0506C3.05406 20.7439 2.80332 20.8914 2.64107 20.9946C2.89182 21.1569 4.86833 20.5374 5.35509 19.9474C5.38459 19.9179 5.45835 19.9031 5.5026 19.8884C6.68261 19.6081 6.6826 18.3839 6.69735 18.0004C7.68561 18.0004 8.05436 16.9236 8.17237 16.6433C8.26087 16.3926 8.31986 16.1123 8.34936 15.8616C8.34936 16.3778 9.11636 16.8203 9.95712 15.9943C9.95712 16.8498 10.9749 16.7023 11.5059 16.1861C11.5501 16.3631 11.8304 16.8056 11.8304 16.8056C11.2551 16.9236 10.9896 17.0563 10.7094 17.2776C10.0751 17.8528 9.9866 18.7969 9.9866 19.2836C9.9866 19.2836 9.10163 20.1539 8.73288 20.4784C8.62963 20.5816 8.52637 20.6554 8.40837 20.7439C7.49387 19.7261 7.1841 20.1244 7.19885 20.1244C6.52035 19.8441 6.15157 20.3309 6.29907 20.5816C6.46132 20.4046 6.7121 20.4489 6.87435 20.5964C5.95984 20.7439 6.16635 21.4076 6.4171 21.5551C6.4171 21.3634 6.47607 21.1421 6.75632 21.1274C6.74157 21.4224 6.93334 21.4666 7.13984 21.4814C7.59709 21.4961 8.34936 21.5109 8.58537 21.7469C8.71812 21.8796 8.64434 22.2484 8.79184 22.3811C8.90985 22.4844 9.04263 22.4844 9.10163 22.4844C9.11638 22.6171 9.08687 22.7794 8.90987 22.9564C9.55888 23.0006 10.0604 22.4254 9.73587 22.1156C9.60312 21.9829 9.14585 21.5404 9.11635 21.3634C9.08685 21.1716 9.29335 20.9356 9.44085 20.8029C9.75061 20.5226 10.0898 20.2571 10.4438 20.0064C10.5471 19.9179 10.6504 19.8589 10.7684 19.7999C10.8716 19.7556 10.9749 19.7409 11.0929 19.7704C11.3436 19.8589 11.3436 19.8294 11.4026 19.7999C11.6534 19.6376 12.1106 19.2541 13.0399 19.1656C12.9809 19.1951 12.9366 19.2541 12.8924 19.2984C12.8481 19.3574 12.8039 19.4459 12.7596 19.5639C12.7006 19.6966 12.6564 19.8294 12.5974 19.9621C11.9926 21.3929 11.4026 22.7941 10.7979 24.2249C10.6061 24.6969 10.7831 25.1099 11.2551 25.3312C11.6091 25.4934 12.0074 25.4197 12.2581 25.0657C12.1991 25.3017 12.1549 25.5082 12.2581 25.6999C12.3614 25.8917 12.5089 26.0392 12.7154 26.1277C12.9071 26.2162 13.1431 26.2457 13.3496 26.2162C13.5561 26.1719 13.7036 26.0392 13.8216 25.8179C13.8216 26.2604 14.1314 26.5997 14.6476 26.5997L14.7067 26.5849ZM111.158 20.8176C111.069 20.8176 110.818 20.8471 110.7 20.8619C110.818 19.7704 110.833 17.8233 110.833 17.1891C110.833 16.4516 110.818 14.6226 110.7 13.5163C110.951 13.5311 111.261 13.5606 111.438 13.5606C111.6 13.5606 111.895 13.5311 112.131 13.5163C112.013 14.5931 111.998 16.4368 111.998 17.1891C111.998 17.7938 112.013 18.6494 112.028 19.0476C112.824 18.0889 115.671 14.4751 116.335 13.5311C116.497 13.5606 116.6 13.5753 116.777 13.5753C116.866 13.5753 117.176 13.5458 117.338 13.5311C117.22 14.6078 117.205 16.4516 117.205 17.2038C117.205 17.8086 117.22 19.7556 117.338 20.8766C117.131 20.8471 116.895 20.8324 116.659 20.8324C116.409 20.8324 116.114 20.8471 115.907 20.8766C116.025 19.7851 116.04 17.8381 116.04 17.2038C116.04 16.4516 116.025 15.5371 116.01 15.2273C115.022 16.2303 112.411 19.6524 111.585 20.8766C111.438 20.8324 111.305 20.8176 111.158 20.8176Z" fill="white"/>
</svg>
