<svg width="140" height="62" viewBox="0 0 140 62" fill="none" xmlns="http://www.w3.org/2000/svg">
<path d="M0.0996094 51.8604H8.0551V61.5142H6.33885V53.3978H1.81586V61.5142H0.0996094V51.8604Z" fill="white"/>
<path d="M17.5294 61.5146H15.6523L13.5249 56.3123L11.3795 61.5146H9.5918L12.7382 54.167H14.3651L17.5294 61.5146Z" fill="white"/>
<path d="M18.3896 59.4769C18.3896 57.9394 19.6768 57.1707 21.3752 57.1707C22.0545 57.1707 22.7517 57.2601 23.3417 57.421V57.2422C23.3417 56.2232 22.7517 55.7047 21.5539 55.7047C20.8746 55.7047 20.1059 55.8835 19.498 56.1338L19.069 54.8466C19.9271 54.4175 20.8567 54.2388 21.8042 54.2388C22.6623 54.1494 23.592 54.489 24.1998 55.0969C24.8077 55.6868 25.0579 56.545 24.9685 57.3137V61.5864H23.3417V60.6389C22.7517 61.3182 21.8936 61.7473 20.9461 61.6579C19.5874 61.6579 18.3896 60.8892 18.3896 59.4411M23.3417 58.9584V58.44C22.8232 58.2612 22.2333 58.1897 21.7149 58.1897C20.6065 58.1897 19.9986 58.6187 19.9986 59.3875C19.9986 60.0668 20.6064 60.4959 21.4467 60.4959C22.5551 60.4959 23.3238 59.8165 23.3238 58.9584" fill="white"/>
<path d="M28.6327 55.7039H26.0762V54.2559H32.9054V55.7039H30.3489V61.5141H28.6505L28.6327 55.7039Z" fill="white"/>
<path d="M33.6026 57.9215C33.5132 55.955 34.9612 54.2388 37.0172 54.0779H37.1959C39.5021 54.0779 40.6999 55.8656 40.6999 58.0109V58.5294H35.3188C35.4082 59.6378 36.3378 60.4065 37.4641 60.4065C38.2328 60.4065 38.9121 60.1562 39.4306 59.5484L40.4496 60.4065C39.7703 61.2646 38.6619 61.7652 37.4641 61.7652C35.4082 61.8546 33.7813 60.2277 33.7098 58.2612C33.6204 58.1003 33.6204 58.0109 33.6204 57.9215M34.9612 51.7002H36.6775V53.327H34.9612V51.7002ZM38.9837 57.3316C38.9837 56.3126 38.2149 55.4545 37.1065 55.4545C36.0875 55.5438 35.2294 56.3126 35.2294 57.3316H38.9837ZM37.6965 51.7002H39.4127V53.327H37.6965V51.7002Z" fill="white"/>
<path d="M47.9588 57.152H48.7991L51.1053 54.2559H53.0718L50.0863 57.8492L53.1612 61.5141H51.1947L48.7991 58.618H47.9588V61.5141H46.332L46.4214 58.618H45.5633L43.1677 61.5141H41.2012L44.2761 57.8492L41.2906 54.2559H43.2571L45.5633 57.152H46.4214L46.332 54.2559H47.9588V57.152Z" fill="white"/>
<path d="M54.3574 54.2559H56.0736V57.152H59.3988V54.2559H61.0257V61.5141H59.3988V58.6001H56.0736V61.5141H54.3574V54.2559Z" fill="white"/>
<path d="M62.6533 59.4593C62.6533 57.9218 63.8511 57.1531 65.6389 57.1531C66.3182 57.1531 66.9975 57.2425 67.6054 57.4034V57.2246C67.6054 56.2056 67.0154 55.6871 65.8176 55.6871C65.1383 55.6871 64.3695 55.8659 63.7617 56.1162L63.3327 54.829C64.1908 54.4 65.1204 54.2212 66.0679 54.2212C66.926 54.1318 67.8557 54.4715 68.4635 55.0793C69.0534 55.6693 69.3216 56.5274 69.2322 57.2961V61.5688H67.6054V60.6213C67.0154 61.3007 66.1573 61.7297 65.2098 61.6403C63.8332 61.6403 62.6533 60.8716 62.6533 59.4235M67.6947 58.9587V58.4403C67.1763 58.2615 66.5864 58.19 66.0679 58.19C64.9595 58.19 64.3517 58.619 64.3517 59.3878C64.3517 60.0671 64.9595 60.4962 65.7997 60.4962C66.8188 60.4962 67.6769 59.8168 67.6769 58.9587" fill="white"/>
<path d="M70.7695 61.5141L72.7361 58.8682C71.717 58.618 71.0198 57.7598 71.0198 56.6514C71.0198 55.0246 72.1282 54.2559 74.0054 54.2559H77.5093V61.5141H75.7931V59.0291H74.4344L72.6467 61.5141H70.7695ZM74.0054 55.5252C73.1473 55.5252 72.6467 55.9542 72.6467 56.6336C72.6467 57.3129 73.1651 57.742 74.0054 57.742H75.7931V55.5252H74.0054Z" fill="white"/>
<path d="M83.2299 57.921C83.1405 55.8651 84.8568 54.1667 86.8948 54.0774H87.0736C88.182 53.988 89.201 54.5064 89.9697 55.3645L88.9507 56.4729C88.5217 55.883 87.8423 55.6148 87.0736 55.5433C85.8758 55.6327 84.9462 56.5623 84.9462 57.8495C84.8568 59.0473 85.8043 60.0663 87.002 60.1557H87.0914C87.7708 60.1557 88.4501 59.816 88.9686 59.2976L89.9876 60.3166C89.3082 61.2641 88.1998 61.6753 87.002 61.6753C84.9461 61.6753 83.2478 60.0484 83.2478 58.0104C83.2478 58.0104 83.2478 57.9806 83.2478 57.921" fill="white"/>
<path d="M91.5244 54.2383H93.2407V58.9401L96.6553 54.2383H98.2821V61.5144H96.5659V56.7232L93.0619 61.5144H91.5244V54.2383Z" fill="white"/>
<path d="M99.8912 57.9208C99.8018 55.8649 101.429 54.1665 103.556 54.0771H103.735C104.843 54.0771 105.862 54.5062 106.631 55.3643L105.612 56.4727C105.183 55.8828 104.504 55.6146 103.735 55.5431C102.537 55.6325 101.607 56.5621 101.607 57.8493C101.518 59.0471 102.466 60.0661 103.663 60.1555H103.753C104.432 60.1555 105.111 59.8158 105.63 59.2974L106.649 60.3164C105.97 61.2639 104.861 61.6751 103.663 61.6751C101.607 61.6751 99.9091 60.0482 99.9091 58.0102V57.9208H99.8912Z" fill="white"/>
<path d="M109.974 55.7042H107.418V54.2383H114.247V55.7042H111.691V61.5144H109.974V55.7042Z" fill="white"/>
<path d="M114.945 57.9208C114.856 55.9543 116.304 54.238 118.36 54.0771H118.539C120.845 54.0771 122.043 55.8649 122.043 58.0102V58.5286H116.662C116.751 59.637 117.681 60.4058 118.807 60.4058C119.576 60.4058 120.255 60.0661 120.773 59.5477L121.721 60.4058C121.042 61.2639 119.933 61.7645 118.735 61.7645C116.679 61.8538 115.07 60.227 114.981 58.2605C115.07 58.0996 115.07 58.0102 114.981 57.9208M120.398 57.313C120.398 56.294 119.629 55.4358 118.521 55.4358C117.502 55.4358 116.644 56.294 116.644 57.313H120.398Z" fill="white"/>
<path d="M123.652 54.2383H125.44L127.675 57.6529L129.892 54.2383H131.59L131.608 61.4965H129.981V56.7232L127.675 60.1378L125.279 56.7232V61.5144H123.652V54.2383Z" fill="white"/>
<path d="M133.215 59.4593C133.215 57.9218 134.502 57.1531 136.2 57.1531C136.88 57.1531 137.559 57.2425 138.167 57.4034V57.2246C138.167 56.2056 137.577 55.6871 136.379 55.6871C135.7 55.6871 134.931 55.8659 134.323 56.1162L133.894 54.829C134.752 54.4 135.682 54.2212 136.629 54.2212C137.488 54.1318 138.417 54.4715 139.025 55.0793C139.615 55.6693 139.883 56.5274 139.794 57.2961V61.5688H138.167V60.6213C137.577 61.3007 136.719 61.7297 135.771 61.6403C134.395 61.6403 133.215 60.8716 133.215 59.4235M138.256 58.9408V58.4224C137.738 58.2436 137.148 58.1721 136.629 58.1721C135.521 58.1721 134.913 58.6012 134.913 59.3699C134.913 60.0492 135.503 60.4783 136.361 60.4783C137.38 60.4783 138.238 59.7989 138.238 58.9408" fill="white"/>
<path d="M99.7314 18.876V39.4708H112.299V27.8505H124.867C131.446 27.8505 137.077 24.0962 139.223 18.876H99.7493H99.7314Z" fill="white"/>
<mask id="mask0_71_779" style="mask-type:luminance" maskUnits="userSpaceOnUse" x="99" y="0" width="41" height="17">
<path d="M99.1221 0.248347C99.2115 1.28524 99.3009 2.30425 99.5511 3.32327C99.6405 3.57355 99.6405 3.75233 99.7299 4.00261L99.8193 4.2529C102.125 11.5111 108.883 16.4632 116.57 16.4632H139.722C139.793 16.1414 139.847 15.7839 139.901 15.4442V12.4408C139.132 5.55795 133.304 0.230469 126.224 0.230469H99.14L99.1221 0.248347Z" fill="white"/>
</mask>
<g mask="url(#mask0_71_779)">
<path d="M139.883 0.24707H99.1221V16.4798H139.883V0.24707Z" fill="white"/>
</g>
<path d="M77.5083 4.35986L68.7126 23.4172H67.8545V0.265925H55.376V39.3997H65.9773C68.802 39.3997 71.2691 37.7728 72.4668 35.2879L81.2626 16.3199H82.2101V39.4712H94.6885V0.248047H83.9263C81.191 0.248047 78.6345 1.8749 77.5261 4.34198" fill="white"/>
<path d="M19.408 5.37888L24.6282 23.3994H25.4864L30.6887 5.37888C31.5468 2.30395 34.3536 0.248047 37.5179 0.248047H49.9963V39.3818H37.5179V16.3199H36.6598L29.4909 39.4712H20.6058L13.5084 16.3199H12.6503V39.4712H0.171875V0.248047H12.6503C15.7253 0.248047 18.5499 2.30395 19.408 5.37888Z" fill="white"/>
</svg>
