<svg width="66" height="76" viewBox="0 0 66 76" fill="none" xmlns="http://www.w3.org/2000/svg">
<mask id="mask0_71_839" style="mask-type:luminance" maskUnits="userSpaceOnUse" x="0" y="32" width="15" height="20">
<path d="M3.85486 35.6693H7.58782C9.99438 35.6693 11.5258 36.7906 11.5258 38.9236V38.9783C11.5258 40.879 10.0081 42.2327 7.58782 42.2327H3.85486V35.6693ZM0.655273 32.7568V51.0112H3.85486V45.1452H7.47841C11.4985 45.1452 14.7802 43.0121 14.7802 38.91V38.8553C14.7802 35.1771 12.1138 32.7568 7.84762 32.7568H0.655273Z" fill="white"/>
</mask>
<g mask="url(#mask0_71_839)">
<path d="M10.4128 26.1686L-7.79492 38.2979L4.97112 57.4615L23.1788 45.3322L10.4128 26.1686Z" fill="white"/>
</g>
<mask id="mask1_71_839" style="mask-type:luminance" maskUnits="userSpaceOnUse" x="17" y="32" width="4" height="20">
<path d="M17.5557 32.7705V51.0112L20.728 50.9975V32.7705V32.7568L17.5557 32.7705Z" fill="white"/>
</mask>
<g mask="url(#mask1_71_839)">
<path d="M19.7297 31.2338L9.1123 38.3066L18.5049 52.4062L29.1223 45.3333L19.7297 31.2338Z" fill="white"/>
</g>
<mask id="mask2_71_839" style="mask-type:luminance" maskUnits="userSpaceOnUse" x="23" y="37" width="13" height="15">
<path d="M26.4292 46.9085V46.8538C26.4292 45.4181 27.6325 44.5566 29.6562 44.5566C30.9005 44.5566 31.9807 44.7891 32.7875 45.1036V46.0334C32.7875 47.7836 31.2013 48.9869 29.1092 48.9869C27.6051 48.9869 26.4292 48.2348 26.4292 46.8948M24.5286 38.171L25.39 40.646C26.6343 40.1264 27.7965 39.7845 29.328 39.7845C31.5431 39.7845 32.7464 40.8237 32.7464 42.7791V43.1209C31.6799 42.7791 30.586 42.5466 29.0409 42.5466C25.6772 42.5466 23.3253 44.0097 23.3389 46.9769V47.0316C23.3389 49.7936 25.6635 51.2841 28.2341 51.2841C30.3535 51.2841 31.7893 50.3953 32.7191 49.274V50.9969H35.7957V42.8338C35.7957 41.0288 35.3171 39.5794 34.3052 38.5813C33.3344 37.5968 31.803 37.0498 29.7383 37.0498C27.5505 37.0498 26.0737 37.4874 24.5286 38.171Z" fill="white"/>
</mask>
<g mask="url(#mask2_71_839)">
<path d="M31.9466 31.2764L16.7432 41.4043L27.144 57.0174L42.3474 46.8895L31.9466 31.2764Z" fill="white"/>
</g>
<mask id="mask3_71_839" style="mask-type:luminance" maskUnits="userSpaceOnUse" x="38" y="33" width="9" height="19">
<path d="M40.0881 33.4531V37.2271H38.3379V39.9344H40.0881V47.1815C40.0881 50.2033 41.7289 51.2152 44.0535 51.2152C45.2567 51.2152 46.1045 50.9554 46.8976 50.5042V47.9198C46.2686 48.2343 45.6533 48.3847 44.9423 48.3847C43.8757 48.3847 43.2468 47.8925 43.2468 46.6619V39.9071H46.9523V37.1997H43.2468V33.4258H40.0881V33.4531Z" fill="white"/>
</mask>
<g mask="url(#mask3_71_839)">
<path d="M44.304 29.4884L30.1475 38.9189L40.9956 55.2035L55.1521 45.773L44.304 29.4884Z" fill="white"/>
</g>
<mask id="mask4_71_839" style="mask-type:luminance" maskUnits="userSpaceOnUse" x="0" y="24" width="66" height="4">
<path d="M65.3453 24.1133H0.655273V27.2992H65.3453V24.1133Z" fill="white"/>
</mask>
<g mask="url(#mask4_71_839)">
<path d="M65.3453 24.1133H0.655273V27.2992H65.3453V24.1133Z" fill="white"/>
</g>
<path d="M46.667 9.33301V18.8362H52.4646V13.4898H58.2896C61.3388 13.4898 63.9368 11.7669 64.935 9.33301H46.667Z" fill="white"/>
<mask id="mask5_71_839" style="mask-type:luminance" maskUnits="userSpaceOnUse" x="46" y="0" width="20" height="9">
<path d="M46.3926 0.732422C46.4199 1.22467 46.4882 1.68958 46.5976 2.15448C46.625 2.26387 46.6523 2.35959 46.6797 2.4553C46.6797 2.49632 46.7071 2.53734 46.7207 2.57836C47.7599 5.86004 50.8228 8.23925 54.4463 8.23925H65.1528C65.2211 7.87006 65.2622 7.50087 65.2622 7.10434C65.2622 5.24472 64.4554 3.57654 63.1838 2.41428C62.0489 1.37508 60.5448 0.732422 58.8766 0.732422H46.4063H46.3926Z" fill="white"/>
</mask>
<g mask="url(#mask5_71_839)">
<path d="M65.2348 0.732422H46.3926V8.23925H65.2348V0.732422Z" fill="white"/>
</g>
<path d="M36.3979 2.64673L32.3367 11.4389H31.9266V0.732422H26.1699V18.8363H31.0651C32.3504 18.8363 33.5127 18.0843 34.0596 16.922L38.1071 8.12986H38.5173V18.8363H44.2739V0.732422H39.3787C38.0934 0.732422 36.9311 1.48447 36.3842 2.64673" fill="white"/>
<path d="M9.56954 3.12531L11.976 11.4526H12.3863L14.7792 3.12531C15.1894 1.71692 16.4747 0.746094 17.9378 0.746094H23.6944V18.85H17.9378V8.15721H17.5275L14.2322 18.8637H10.1164L6.82112 8.17088H6.41093V18.8773H0.654297V0.773441H6.41093C7.87401 0.773441 9.173 1.74427 9.56954 3.15265" fill="white"/>
<mask id="mask6_71_839" style="mask-type:luminance" maskUnits="userSpaceOnUse" x="0" y="56" width="15" height="19">
<path d="M0.655273 56.4521V74.6928H3.86855V67.268H13.071V64.3418H3.86855L3.85486 59.3646H14.2332V56.4521V56.4385L0.655273 56.4521Z" fill="white"/>
</mask>
<g mask="url(#mask6_71_839)">
<path d="M10.0704 50.1717L-7.76172 62.0508L4.83755 80.964L22.6697 69.085L10.0704 50.1717Z" fill="white"/>
</g>
<mask id="mask7_71_839" style="mask-type:luminance" maskUnits="userSpaceOnUse" x="15" y="60" width="16" height="16">
<path d="M18.8139 68.1025V68.0478C18.8139 65.6412 20.4274 63.6722 22.957 63.6722C25.4319 63.6722 27.1822 65.6823 27.1822 68.1025V68.1572C27.1822 70.5227 25.5687 72.5191 23.0117 72.5191C20.5641 72.5191 18.8139 70.5091 18.8139 68.1162M15.6689 68.1025V68.1572C15.6689 72.0679 18.7729 75.2675 22.9707 75.2675C27.2232 75.2675 30.3544 72.0132 30.3544 68.1025V68.0478C30.3544 64.1098 27.2505 60.9102 23.0254 60.9102C18.8002 60.9102 15.6689 64.1645 15.6689 68.1025Z" fill="white"/>
</mask>
<g mask="url(#mask7_71_839)">
<path d="M25.8044 54.096L9.00781 65.2852L20.144 82.0021L36.9405 70.8129L25.8044 54.096Z" fill="white"/>
</g>
<mask id="mask8_71_839" style="mask-type:luminance" maskUnits="userSpaceOnUse" x="33" y="60" width="9" height="15">
<path d="M36.6987 64.0278V60.9239H33.5127V74.6932H36.6987V69.4562C36.6987 65.8053 38.6267 64.0004 41.3887 64.0004H41.5802V60.6641C41.4981 60.6641 41.4161 60.6641 41.3204 60.6641C39.0369 60.6641 37.5328 62.0451 36.6987 64.0278Z" fill="white"/>
</mask>
<g mask="url(#mask8_71_839)">
<path d="M39.1385 57.0092L27.0859 65.0352L36.0365 78.4763L48.0891 70.4504L39.1385 57.0092Z" fill="white"/>
</g>
<mask id="mask9_71_839" style="mask-type:luminance" maskUnits="userSpaceOnUse" x="44" y="60" width="22" height="15">
<path d="M55.7877 63.055C55.063 61.5919 53.6546 60.6348 51.6719 60.6348C49.5661 60.6348 48.3629 61.7833 47.4741 63.014V60.9219H44.2881V74.6913H47.4741V66.9246C47.4741 64.8189 48.6774 63.5062 50.4139 63.5062C52.1642 63.5062 53.2033 64.7095 53.2033 66.8426V74.6913H56.3619V66.9246C56.3619 64.7095 57.5926 63.5062 59.3155 63.5062C61.0384 63.5062 62.1049 64.6822 62.1049 66.8699V74.6913H65.2635V65.9128C65.2635 62.5491 63.4312 60.6484 60.4367 60.6484C58.3583 60.6484 56.8952 61.6193 55.8014 63.0687" fill="white"/>
</mask>
<g mask="url(#mask9_71_839)">
<path d="M58.7731 50.9177L37.7773 64.9043L50.7026 84.3069L71.6984 70.3203L58.7731 50.9177Z" fill="white"/>
</g>
<mask id="mask10_71_839" style="mask-type:luminance" maskUnits="userSpaceOnUse" x="50" y="47" width="5" height="4">
<path d="M54.1996 47.8252H50.9727V50.9975H54.1996V47.8252Z" fill="white"/>
</mask>
<g mask="url(#mask10_71_839)">
<path d="M53.2184 46.3435L49.5195 48.8066L51.9751 52.4941L55.6739 50.031L53.2184 46.3435Z" fill="white"/>
</g>
</svg>
