<svg width="144" height="84" viewBox="0 0 144 84" fill="none" xmlns="http://www.w3.org/2000/svg">
<path d="M71.9032 0.0410156C57.527 0.0410156 45.7599 11.7206 45.7774 26.1844C45.7774 40.6482 57.457 52.3278 71.9207 52.3278C86.367 52.3278 98.0641 40.6482 98.0466 26.1844C98.1166 11.7381 86.367 0.0585262 71.9032 0.0585262M71.9207 50.349C58.5601 50.349 47.8261 39.545 47.8261 26.1844C47.8261 12.8238 58.6302 2.08976 71.9908 2.08976C85.2813 2.08976 96.0854 12.8938 96.0854 26.1844C96.0854 39.4749 85.3514 50.279 72.0608 50.349H71.9207Z" fill="white"/>
<path d="M71.9216 45.8312C72.7271 45.8312 73.3749 45.2358 73.3749 44.4479V44.3778C73.515 44.7455 73.8127 45.0257 74.2505 45.1133C74.6182 45.1833 75.056 45.1133 75.4237 44.9732C75.7914 44.8331 76.0716 44.6055 76.2292 44.2377C76.3693 43.87 76.3693 43.4323 76.2292 43.1346C76.5969 43.7124 77.4024 43.9401 77.9802 43.6424C78.7157 43.3447 79.1535 42.5392 78.8558 41.7512C78.8558 41.7512 78.8324 41.6987 78.7857 41.5936C77.6826 39.0371 76.6669 36.5506 75.5813 33.994C75.5112 33.7664 75.3536 33.5563 75.2836 33.2586C75.2136 33.1185 75.1435 32.9609 75.0735 32.7508C75.0034 32.6807 74.9334 32.6107 74.8458 32.5231C75.949 32.5932 76.8946 33.0309 77.7701 33.6263C77.8635 33.673 78.0561 33.6496 78.348 33.5563C78.5581 33.4862 78.7857 33.4862 78.9258 33.6263C79.1535 33.6963 79.2935 33.8539 79.5037 33.994C80.0815 34.4318 80.7469 34.9396 81.2547 35.3774C81.5524 35.5875 81.9201 36.0252 81.8326 36.393C81.7625 36.7607 80.957 37.4961 80.7294 37.7063C80.1516 38.2841 81.0271 39.3173 82.1828 39.1597C81.9727 38.932 81.8151 38.6518 81.8151 38.2841C82.0427 38.2841 82.1828 38.2141 82.3929 38.144C82.6206 37.9339 82.533 37.2685 82.7606 37.0409C83.1984 36.6731 84.5117 36.6031 85.3172 36.5331C85.6849 36.5331 85.9651 36.393 85.9651 35.8852C86.4729 35.8852 86.5429 36.3229 86.5429 36.6206C86.9807 36.393 87.3484 35.1672 85.7374 34.9396C86.0351 34.6419 86.4729 34.6419 86.7531 34.9396C87.0507 34.5018 86.3153 33.6263 85.1421 34.1341C85.1421 34.1341 84.6343 33.3987 82.9533 35.2373C82.7256 35.0972 82.5155 34.9396 82.3754 34.7295C81.7275 34.1516 80.1866 32.6107 80.1866 32.6107C80.1866 31.7351 80.0465 30.0541 78.8733 29.0385C78.2954 28.5307 77.63 28.233 76.8946 28.163C77.1222 27.7953 77.3323 27.4275 77.4724 27.0598C78.418 27.9353 80.2391 28.233 80.2391 26.6921C81.6925 28.1455 83.0933 27.34 83.0933 26.4645C83.1634 26.9022 83.2334 27.41 83.391 27.8478C83.6187 28.3556 84.2666 30.2643 86.0176 30.2643C86.0176 30.9121 86.0877 33.101 88.1364 33.6263C88.2065 33.6263 88.364 33.6963 88.4341 33.7664C89.3096 34.8695 92.8117 35.9552 93.2495 35.675C92.9518 35.4474 92.5141 35.2373 92.444 33.994C92.374 33.1885 92.3039 28.951 92.3039 22.9623C92.3039 20.8435 92.0763 13.9794 85.2997 13.0338C84.2841 12.8062 83.2509 13.0338 82.3754 13.6292C81.0621 14.5747 80.6243 16.2558 81.2897 17.7091C81.2897 17.7792 81.3598 17.8492 81.3598 17.8492C81.5699 18.2169 81.4999 18.6547 81.2197 18.9524C80.7119 19.5302 79.9764 19.898 79.171 19.968C78.6632 20.038 78.2254 19.8279 77.9277 19.4602C77.1222 18.7248 76.6845 17.7091 76.4743 16.6935C76.2467 15.6779 76.3342 14.5747 76.6845 13.5591C77.2623 12.3859 78.4355 11.668 79.7488 11.5104C80.3267 10.3372 82.1653 10.7749 82.1653 10.7749C82.603 10.845 82.7431 11.0026 82.9007 11.2127C82.9007 11.2127 83.7062 10.0395 82.9708 9.53167C82.2353 9.16395 81.4298 8.95382 80.5543 8.88378C80.5543 8.07829 79.241 7.50044 76.9821 7.9382C74.2155 8.44601 73.5501 7.36035 73.5501 7.36035C73.48 8.30593 73.9878 9.18146 74.7933 9.61922C73.1123 11.5104 72.0967 13.8568 71.869 16.3433C71.6414 13.8568 70.6258 11.4578 68.9448 9.61922C69.7502 9.18146 70.2581 8.30593 70.188 7.36035C70.188 7.36035 69.6102 8.44601 66.7559 7.9382C64.427 7.50044 63.1838 8.16584 63.1838 8.88378C62.3783 8.95382 61.5728 9.18146 60.7673 9.54918C60.0318 10.057 60.8373 11.2302 60.8373 11.2302C60.9774 11.0026 61.135 10.8625 61.5728 10.7924C61.5728 10.7924 63.3238 10.3547 63.9892 11.5279C65.3025 11.5979 66.4758 12.4034 67.0536 13.5766C67.4914 14.5922 67.5614 15.6954 67.2637 16.711C67.0536 17.7266 66.5283 18.7598 65.8104 19.4777C65.5127 19.8454 65.0049 20.0556 64.5671 19.9855C63.8317 19.9155 63.1137 19.5478 62.5183 19.0399C62.2207 18.7423 62.1506 18.3045 62.3783 17.9368C62.3783 17.8667 62.4483 17.7967 62.4483 17.7967C63.0962 16.3433 62.676 14.6623 61.4327 13.6992C60.5572 13.1213 59.5415 12.8937 58.5084 13.1213C51.7143 14.0669 51.5042 20.9311 51.5042 23.0499C51.5042 29.0385 51.4341 33.2761 51.3641 34.0816C51.294 35.3248 50.8563 35.605 50.5586 35.7626C50.9964 36.0603 54.4985 34.9571 55.374 33.8714C55.4441 33.8014 55.5141 33.8014 55.6717 33.7314C57.7905 33.2236 57.7905 31.0347 57.7905 30.3693C59.5415 30.3693 60.1894 28.4782 60.4171 27.9529C60.5572 27.5151 60.7148 27.0073 60.7148 26.5695C60.7148 27.5151 62.0981 28.3206 63.569 26.7971C63.569 28.3381 65.3901 28.0404 66.2656 27.1649C66.4057 27.5326 66.6334 27.9003 66.8435 28.268C66.108 28.3381 65.3901 28.6358 64.8823 29.1436C63.7091 30.1592 63.569 31.8402 63.569 32.7157C63.569 32.7157 61.958 34.2392 61.3802 34.8345C61.1525 34.9746 61.0124 35.2023 60.8023 35.3423C59.1913 33.5212 58.6135 34.2392 58.6135 34.2392C57.3702 33.7314 56.7223 34.6069 57.0025 35.0447C57.3002 34.747 57.738 34.747 58.0181 35.0447C56.4071 35.3423 56.7749 36.498 57.2126 36.7257C57.2126 36.358 57.2827 35.9902 57.7905 35.9902C57.7905 36.498 58.0882 36.5681 58.4384 36.6556C59.2439 36.6556 60.5572 36.7257 60.9949 37.1634C61.2226 37.3911 61.135 38.039 61.3627 38.2666C61.5027 38.4067 61.7304 38.4943 61.9405 38.4067C61.9405 38.7044 61.8705 39.0546 61.5728 39.2822C62.746 39.3523 63.6215 38.3367 63.0262 37.8288C62.7985 37.6187 61.9405 36.8132 61.9405 36.5156C61.9405 36.2179 62.2382 35.7801 62.5183 35.4999C63.0962 34.9921 63.6916 34.5544 64.2694 34.1166C64.4971 33.9765 64.6371 33.8189 64.8473 33.7489C64.9874 33.6788 65.215 33.6088 65.4251 33.6788C65.717 33.7722 65.9096 33.7956 66.003 33.7489C66.8785 33.101 67.8241 32.7333 68.9272 32.6457C68.8572 32.7157 68.6996 32.7858 68.6996 32.8733C68.6296 33.0134 68.5595 33.171 68.4895 33.3811C68.4194 33.6088 68.2618 33.8189 68.1918 34.1166C67.1061 36.6731 66.073 39.1597 64.9874 41.7162C64.6196 42.4517 64.9874 43.3272 65.7228 43.6949C65.7228 43.6949 65.7695 43.7183 65.8629 43.765C66.5108 44.0626 67.2462 43.905 67.6139 43.2571C67.4739 43.6249 67.4739 44.0626 67.6139 44.3428C67.754 44.7105 68.0517 44.9207 68.4194 45.0783C68.7872 45.2358 69.1549 45.3059 69.5926 45.2358C69.9604 45.1658 70.2405 44.8681 70.4682 44.5004C70.4682 45.3059 71.046 45.8837 71.8515 45.9538V45.8837L71.9216 45.8312Z" fill="white"/>
<path d="M5.11826 65.0408C6.57164 65.0408 9.49592 64.9008 11.1769 64.8132C11.1069 65.1109 11.1069 65.3911 11.1069 65.6887C11.1069 65.9164 11.1769 66.2666 11.1769 66.5643C9.65351 66.3541 7.23704 66.1965 6.43155 66.1965C5.92374 66.1965 3.80496 66.2666 2.63175 66.3366V72.8331H3.94505C6.64168 72.8331 12.2626 73.3409 12.2626 78.0162C12.2626 81.816 9.05815 83.5671 4.89062 83.497C4.45286 83.497 2.70179 83.427 1.52858 83.427C1.02077 83.427 0.583004 83.427 0.0751953 83.497C0.21528 80.6603 0.285324 76.7029 0.285324 73.4985C0.285324 70.5742 0.285323 66.1965 0.0751953 64.7432C1.82626 64.8832 4.52289 65.0408 5.11826 65.0408ZM2.70179 82.0437C3.34968 82.0437 4.15518 82.1137 4.89062 82.1137C7.95498 82.1137 9.70604 80.7304 9.70604 78.0162C9.70604 75.162 7.58726 74.2164 2.70179 74.2164V82.0262V82.0437Z" fill="white"/>
<path d="M15.2581 72.0453C16.4313 70.8721 18.0248 70.2242 19.7058 70.2942C22.4024 70.2942 24.3111 71.6075 24.3111 74.8995V81.3259C24.3111 82.6392 24.6088 82.9369 25.1166 82.9369C25.3442 82.9369 25.5544 82.8668 25.6944 82.8668L25.8345 83.4447C25.2567 83.7424 24.5913 83.8825 23.8558 83.9525C23.1204 84.0225 22.4024 83.5147 22.2448 82.7793L22.1048 82.2014C20.9315 83.2171 19.4782 83.8124 17.9372 83.8825C15.6083 83.8825 14.0674 82.6392 14.0674 80.4504C14.0674 78.1215 15.8184 77.0183 18.1474 76.5805L20.774 76.0727C21.6495 75.9326 22.1573 75.635 22.1573 75.0571C22.1573 72.2204 20.9841 71.555 19.0229 71.555C17.4995 71.4149 16.0986 72.2904 15.5208 73.6738H15.2231V72.0628L15.2581 72.0453ZM22.2098 76.8607L20.5288 77.0883C18.7077 77.386 16.5889 78.0339 16.5889 80.0126C16.5889 81.4835 17.3944 82.359 19.0754 82.359C20.2486 82.359 21.4043 81.8512 22.2098 80.8881V76.8782V76.8607Z" fill="white"/>
<path d="M29.4234 70.5749C29.7211 70.5749 30.2289 70.5049 30.6667 70.5049C30.439 72.4836 30.439 75.688 30.439 75.8281C31.5422 75.8982 33.0656 75.8982 33.9412 75.8982C34.8167 75.8982 36.4277 75.8281 37.2332 75.8281C37.2332 75.688 37.2332 72.396 37.0055 70.5049C37.4433 70.5049 38.0211 70.5749 38.3188 70.5749C38.6165 70.5749 39.1243 70.5049 39.5621 70.5049C39.3344 72.4836 39.3344 75.688 39.3519 77.0714C39.3519 78.1745 39.3519 81.6767 39.5796 83.6379C39.2119 83.5678 38.7741 83.5678 38.4064 83.5678C37.9686 83.5678 37.5308 83.5678 37.0931 83.6379C37.3032 81.6592 37.3032 78.157 37.3032 77.3691C36.13 77.299 34.6066 77.1414 34.0112 77.1414C33.4158 77.1414 31.5947 77.2115 30.5791 77.2815C30.5791 78.157 30.5791 81.6592 30.7892 83.6379C30.4215 83.5678 29.9838 83.5678 29.616 83.5678C29.1783 83.5678 28.7405 83.5678 28.3027 83.6379C28.5304 81.6592 28.5304 78.157 28.5304 77.0714C28.5304 75.7581 28.5304 72.4836 28.3027 70.5049C28.5304 70.5049 29.1082 70.5749 29.4059 70.5749" fill="white"/>
<path d="M44.2548 70.5744C44.5525 70.5744 45.0603 70.5043 45.498 70.5043C45.2704 72.483 45.2704 75.6875 45.2879 76.1953H45.7257C46.6012 76.1953 50.9088 71.2223 51.3466 70.5043C51.7143 70.5043 52.2921 70.5744 52.5898 70.5744C52.8875 70.5744 53.4654 70.5043 53.8331 70.5043L47.6343 75.9852C48.4398 76.9307 52.5198 81.536 54.3584 83.4972C53.623 83.4272 53.1852 83.4272 52.835 83.4272C52.4848 83.4272 51.6618 83.4272 51.154 83.4972C49.4729 81.1683 47.6518 78.8919 45.6731 76.7731H45.2354C45.2354 77.7187 45.2354 81.5185 45.463 83.4972C45.0953 83.4272 44.6575 83.4272 44.2898 83.4272C43.852 83.4272 43.4143 83.4272 42.9765 83.4972C43.2041 81.5185 43.1866 78.0164 43.1866 76.9307C43.1866 75.6174 43.1866 72.3254 42.959 70.3643C43.3968 70.5043 43.9746 70.5919 44.2723 70.5919" fill="white"/>
<path d="M65.7918 64.8835C66.6674 64.8835 67.8406 64.8135 68.5585 64.8135C73.3039 64.8135 75.2126 66.2669 75.2126 69.4888C75.2126 73.7264 71.7104 75.0397 67.4729 75.0397C67.2627 75.0397 66.2296 74.9696 65.7918 74.9696V79.4173C65.7918 80.8007 65.8619 82.184 66.002 83.5849C65.5642 83.5148 65.1264 83.5148 64.6887 83.5148C64.1809 83.5148 63.7431 83.5148 63.2353 83.5849C63.3754 80.7306 63.4454 76.7907 63.4454 73.5863C63.4454 70.662 63.4454 66.2844 63.2178 64.831C64.0233 64.831 65.1965 64.901 65.7743 64.901M66.8075 73.6388C70.4672 73.6388 72.5685 72.1855 72.5685 69.4713C72.5685 66.9148 70.5197 66.1793 68.0332 66.1793C67.5954 66.1793 66.0545 66.1793 65.7043 66.2493V73.4812C66.072 73.5513 66.4397 73.6213 66.8075 73.6213" fill="white"/>
<path d="M88.644 76.9299C88.644 80.8698 86.0874 83.7941 82.0075 83.7941C77.91 83.7941 75.5811 80.8698 75.5811 77.2276C75.5811 72.92 78.3477 70.1533 82.3051 70.1533C86.245 70.1533 88.6615 73.0776 88.6615 76.9474M77.98 77.2101C77.98 80.1344 79.2233 82.831 81.9199 82.831C84.6165 82.831 86.1575 80.2745 86.1575 76.8424C86.1575 74.0757 85.0543 71.2215 82.1475 71.2215C79.3809 71.2215 78.0676 74.1457 77.98 77.2101Z" fill="white"/>
<path d="M101.269 73.2717H100.971C100.236 71.9584 98.8527 71.1529 97.3993 71.2229C94.405 71.2229 92.9516 74.1472 92.9516 76.9839C92.9516 80.2759 94.7727 82.8325 97.9947 82.8325C99.0803 82.8325 100.043 82.6924 101.497 81.0814L101.724 81.3791L101.427 82.6223C100.184 83.4278 98.7301 83.8656 97.1892 83.8656C93.1793 83.8656 90.5527 81.0114 90.5352 77.0715C90.5352 72.9039 93.3894 70.2773 97.5394 70.2773C99.0628 70.2773 100.604 70.6451 101.987 71.4506L101.252 73.2717H101.269Z" fill="white"/>
<path d="M114.332 73.2717H114.034C113.299 71.9584 111.915 71.1529 110.462 71.2229C107.468 71.2229 106.014 74.1472 106.014 76.9839C106.014 80.2759 107.835 82.8325 111.057 82.8325C112.073 82.8325 113.106 82.6924 114.559 81.0814L114.787 81.3791L114.489 82.6223C113.246 83.4278 111.793 83.8656 110.252 83.8656C106.242 83.8656 103.598 81.0114 103.598 77.0715C103.598 72.9039 106.452 70.2773 110.602 70.2773C112.125 70.2773 113.666 70.6451 115.05 71.4506L114.314 73.2717H114.332Z" fill="white"/>
<path d="M118.133 83.4799C117.992 83.4799 117.485 83.55 117.327 83.55C117.555 81.5713 117.537 78.0691 117.537 76.9835C117.537 75.6702 117.537 72.3782 117.31 70.417C117.747 70.417 118.325 70.487 118.623 70.487C118.921 70.487 119.428 70.417 119.866 70.417C119.656 72.3957 119.656 75.6001 119.656 76.9835C119.656 78.0691 119.656 79.6101 119.726 80.3455C121.109 78.5945 126.222 72.1681 127.396 70.487C127.623 70.5571 127.904 70.5571 128.201 70.5571C128.341 70.5571 128.937 70.487 129.217 70.487C128.989 72.4482 128.989 75.6702 129.007 77.0535C129.007 78.1567 129.007 81.6588 129.234 83.62C128.867 83.55 128.429 83.55 128.061 83.55C127.623 83.55 127.186 83.55 126.748 83.62C126.975 81.6413 126.958 78.1392 126.958 77.0535C126.958 75.7402 126.958 74.0592 126.888 73.5514C124.034 76.7734 121.407 80.1179 119.008 83.62C118.64 83.4799 118.43 83.4799 118.133 83.4799Z" fill="white"/>
<path d="M132.805 83.4799C132.665 83.4799 132.158 83.55 132 83.55C132.228 81.5713 132.228 78.0691 132.228 76.9835C132.228 75.6702 132.228 72.3782 132 70.417C132.438 70.417 133.016 70.487 133.313 70.487C133.611 70.487 134.119 70.417 134.557 70.417C134.346 72.3957 134.346 75.6001 134.346 76.9835C134.346 78.0691 134.346 79.6101 134.416 80.3455C135.8 78.5945 140.913 72.1681 142.086 70.487C142.314 70.5571 142.594 70.5571 142.892 70.5571C143.032 70.5571 143.627 70.487 143.907 70.487C143.68 72.4482 143.68 75.6702 143.697 77.0535C143.697 78.1567 143.697 81.6588 143.925 83.62C143.557 83.55 143.119 83.55 142.752 83.55C142.314 83.55 141.876 83.55 141.438 83.62C141.666 81.6413 141.648 78.1392 141.648 77.0535C141.648 75.7402 141.648 74.0592 141.578 73.5514C138.724 76.7734 136.097 80.1179 133.699 83.62C133.331 83.4799 133.051 83.4799 132.823 83.4799" fill="white"/>
</svg>
