<svg width="104" height="56" viewBox="0 0 104 56" fill="none" xmlns="http://www.w3.org/2000/svg">
<path d="M103.475 20.8564V35.1289H98.4614V25.102H93.6219V35.1289H88.6084V20.8564H103.475Z" fill="white"/>
<path d="M86.1309 28.4487C86.2034 32.5928 82.8563 35.5487 78.1036 35.5487C73.6118 35.5487 69.8154 32.8247 69.8154 26.2028C69.8154 20.5808 73.4089 15.944 78.7266 15.8426C81.0595 15.8426 86.1165 15.8281 86.1165 15.8281L83.7691 20.0591H79.2483C76.9589 20.0591 74.9158 21.6096 74.6115 23.9714C75.8287 22.8267 77.7268 22.1457 79.6974 22.1457C83.3634 22.1457 86.073 25.2755 86.1309 28.4487ZM81.132 28.7675C81.132 27.1157 79.8568 25.7391 78.1326 25.7391C76.4083 25.7391 75.0897 27.1447 75.1187 28.7965C75.1187 30.5498 76.6836 31.7379 78.0456 31.7379C79.7699 31.7379 81.132 30.4338 81.132 28.7675Z" fill="white"/>
<path d="M65.9603 30.2469C65.9603 30.2469 64.2795 31.3771 62.0336 31.3337C60.628 31.3337 58.7298 30.1165 58.7298 27.9431C58.7588 25.7406 60.628 24.5524 62.0336 24.5524C64.2215 24.48 65.9603 25.6392 65.9603 25.6392L67.8295 22.2631C66.1631 21.0604 64.5692 20.4373 62.3088 20.4229C57.4113 20.4229 54.0352 24.4075 54.0352 27.9431C54.0352 32.0871 57.788 35.5067 62.2799 35.5357C64.265 35.5647 66.279 34.8982 67.8439 33.6665L65.9603 30.2324V30.2469Z" fill="white"/>
<path d="M14.5216 28L7.26216 32.1876L0.524414 43.8663L27.9971 28H14.5216Z" fill="white"/>
<path d="M35.2559 16.0312L27.9965 20.2188L21.2588 31.8976L48.7459 16.0312H35.2559Z" fill="white"/>
<path d="M27.9965 11.8438L21.2588 0.165039V24.1022V31.8977L21.2733 55.8349L28.011 44.1561L27.9965 11.8438Z" fill="white"/>
<path d="M21.2588 0.165039L27.9965 11.8438L35.2559 16.0314H48.7459L21.2588 0.165039Z" fill="white"/>
<path d="M21.2588 24.1016L21.2733 55.8342L28.011 44.1554V35.7803L21.2588 24.1016Z" fill="white"/>
<path d="M35.2716 39.9678L28.0122 44.1553L21.2744 55.8341L48.7471 39.9678H35.2716Z" fill="white"/>
<path d="M0.524414 12.1328V43.8655L7.26216 32.1867V23.8116L0.524414 12.1328Z" fill="white"/>
<path d="M21.2593 24.1014L21.2738 24.1159L0.524414 12.1328L7.26216 23.8116L35.271 39.9677H48.7465L21.2593 24.1014Z" fill="white"/>
</svg>
