<svg width="670" height="127" viewBox="0 0 670 127" fill="none" xmlns="http://www.w3.org/2000/svg">
<path d="M35.0314 2.60742V94.294C35.0314 104.964 32.8478 112.8 28.494 117.774C24.1402 122.761 17.3617 125.262 8.18518 125.262C5.86761 125.262 3.13474 125.088 0 124.74V107.692C1.74152 107.812 3.89833 107.866 6.44363 107.866C10.0472 107.866 12.6997 106.943 14.3743 105.085C16.0622 103.239 16.9062 99.8698 16.9062 95.0027V2.6208H35.0314V2.60742Z" fill="white"/>
<path d="M173.079 2.60742V78.6363C173.079 93.4783 168.711 105.218 160.004 113.856C151.283 122.507 139.615 126.826 124.972 126.826C110.33 126.826 98.6487 122.507 89.941 113.856C81.22 105.218 76.8662 93.4783 76.8662 78.6363V2.60742H95.7014V78.2886C95.7014 87.6752 98.3405 95.0428 103.619 100.378C108.91 105.713 116.024 108.374 124.972 108.374C133.921 108.374 141.035 105.7 146.326 100.378C151.618 95.0428 154.257 87.6752 154.257 78.2886V2.60742H173.092H173.079Z" fill="white"/>
<path d="M216.472 0.869141L290.728 74.9859C295.255 79.5054 298.444 84.0249 300.306 88.5577L300.989 88.3839C299.837 83.9847 299.261 76.6707 299.261 66.4684V2.62077H317.386V126.144H315.819L241.563 52.0275C237.022 47.508 233.833 42.9885 231.985 38.4557L231.288 38.6295C232.454 43.042 233.03 50.2892 233.03 60.3845V124.406H214.904V0.882505H216.472V0.869141Z" fill="white"/>
<path d="M379.086 2.60791H360.961V124.393H379.086V2.60791Z" fill="white"/>
<path d="M433.639 17.9175C445.615 5.97694 460.833 0 479.32 0C497.807 0 513.012 5.97694 524.988 17.9175C536.951 29.8713 542.94 45.0611 542.94 63.5C542.94 81.9389 536.951 97.142 524.988 109.083C513.012 121.023 497.794 127 479.32 127C460.847 127 445.615 121.036 433.639 109.083C421.676 97.1286 415.701 81.9389 415.701 63.5C415.701 45.0611 421.676 29.8713 433.639 17.9175ZM510.775 31.1416C502.59 22.6776 492.087 18.4389 479.32 18.4389C466.554 18.4389 456.051 22.6776 447.852 31.1416C439.667 39.6056 435.568 50.3962 435.568 63.5C435.568 76.6038 439.667 87.3944 447.852 95.8584C456.051 104.336 466.54 108.561 479.32 108.561C492.1 108.561 502.59 104.322 510.775 95.8584C518.96 87.3944 523.073 76.6038 523.073 63.5C523.073 50.3962 518.974 39.6056 510.775 31.1416Z" fill="white"/>
<path d="M619.442 2.60761C630.949 2.60761 640.072 5.62952 646.811 11.6599C653.549 17.6904 656.925 25.9805 656.925 36.5304C656.925 45.8101 653.737 53.4718 647.333 59.5022C640.943 65.5326 634.03 68.5412 626.595 68.5412C624.613 68.5412 622.59 68.2604 620.487 67.672V68.3673C624.666 69.758 628.859 73.0607 633.039 78.2754L670 124.379H646.462L603.406 69.9318H601.665C599.816 69.9318 598.423 69.7045 597.485 69.2365L597.137 69.5841C597.485 70.6271 597.659 72.1915 597.659 74.2774V124.379H579.534V2.59424H619.442V2.60761ZM597.485 18.9606L597.137 19.3083C597.485 20.2443 597.659 21.7419 597.659 23.8278V48.5378C597.659 50.6237 597.485 52.0812 597.137 52.8835L597.485 53.2311C598.53 52.7631 599.977 52.5358 601.839 52.5358H619.616C625.31 52.5358 629.69 51.1185 632.771 48.2704C635.852 45.4223 637.38 41.451 637.38 36.3566C637.38 31.2622 635.879 27.3444 632.852 24.269C629.824 21.1936 625.403 19.6559 619.603 19.6559H601.826C599.964 19.6559 598.517 19.4286 597.472 18.9606" fill="white"/>
</svg>
