<svg width="722" height="62" viewBox="0 0 722 62" fill="none" xmlns="http://www.w3.org/2000/svg">
<path d="M22.0786 1.26838C28.7916 1.26838 33.9994 2.86229 37.6882 6.06361C41.377 9.26493 43.2214 13.7765 43.2214 19.6118C43.2214 25.4471 41.4312 29.9722 37.8509 33.2005C34.257 36.4289 29.2256 38.0363 22.7567 38.0363H15.3519C14.1585 38.0363 13.3448 37.9012 12.9651 37.604L12.7887 37.7796C13.0735 38.2389 13.2227 39.0764 13.2227 40.3191V60.7022H0V1.25488H22.0786V1.26838ZM12.9651 12.1421L12.7887 12.3177C13.0735 12.7769 13.2227 13.6279 13.2227 14.8706V24.38C13.2227 25.6768 13.0735 26.5547 12.7887 27.014L12.9651 27.1896C13.3448 26.906 14.1585 26.7574 15.3519 26.7574H22.499C24.8316 26.7574 26.7031 26.109 28.0864 24.7988C29.4833 23.502 30.1749 21.773 30.1749 19.6118C30.1749 17.4506 29.4833 15.7486 28.0864 14.4789C26.6896 13.1957 24.8316 12.5608 22.499 12.5608H15.3519C14.1585 12.5608 13.3448 12.4257 12.9651 12.1285" fill="white"/>
<path d="M46.2988 60.718L75.7143 0.163086H78.4402L107.842 60.718H93.3582L87.8114 48.318H66.4109L60.7828 60.718H46.2988ZM69.4081 38.9841C70.1946 38.7005 71.4695 38.5654 73.2461 38.5654H80.9085C82.6715 38.5654 83.9463 38.7005 84.7464 38.9841L84.8278 38.9031C84.0819 38.0521 83.3225 36.7284 82.5223 34.9184L79.1048 26.8407C77.9113 24.0176 77.2875 21.978 77.2332 20.7353H76.8942C76.7857 22.1536 76.189 24.1797 75.104 26.8407L71.7 34.9184C70.7914 36.8364 69.9912 38.1737 69.2996 38.9031L69.3945 38.9841H69.4081Z" fill="white"/>
<path d="M162.687 1.27051L141.124 39.6593V60.7313H127.915V39.6593L106.338 1.27051H122.029L131.237 20.546C133.055 24.3416 134.14 27.0026 134.479 28.529H134.655C134.94 26.9486 135.984 24.2741 137.801 20.546L147.01 1.27051H162.701H162.687Z" fill="white"/>
<path d="M218.113 1.27051V13.2518H204.212C203.181 13.2518 202.449 13.1167 202.001 12.8331L201.825 12.9952C202.001 13.4544 202.083 14.3054 202.083 15.5481V60.7313H188.874V15.5481C188.874 14.4135 188.982 13.5625 189.199 12.9952L189.023 12.8331C188.575 13.1167 187.829 13.2518 186.812 13.2518H172.83V1.27051H218.113Z" fill="white"/>
<path d="M269.785 1.27051V12.9952H248.127C246.988 12.9952 246.188 12.8601 245.74 12.5629L245.578 12.7385C245.849 13.1978 245.998 14.0488 245.998 15.2915V21.2349C245.998 22.5316 245.863 23.4096 245.578 23.8688L245.74 24.031C246.188 23.7473 246.988 23.5987 248.127 23.5987H267.493V35.1478H248.127C246.988 35.1478 246.188 35.0127 245.74 34.7155L245.578 34.8911C245.849 35.3504 245.998 36.2014 245.998 37.4441V46.6968C245.998 47.9395 245.863 48.7905 245.578 49.2498L245.74 49.4119C246.188 49.1282 246.988 48.9931 248.127 48.9931H270.124V60.7178H232.775V1.27051H269.785Z" fill="white"/>
<path d="M315.745 61.9999C306.252 61.9999 298.495 59.0957 292.473 53.2874C286.438 47.4927 283.428 40.0499 283.428 30.9998C283.428 21.9496 286.452 14.5069 292.473 8.71211C298.495 2.90381 306.239 0.0131836 315.745 0.0131836C323.869 0.0131836 331.125 2.21493 337.485 6.63194L330.745 17.33C325.971 14.2773 321.048 12.7374 316.003 12.7374C310.429 12.7374 305.927 14.4259 302.482 17.7893C299.051 21.1662 297.315 25.5562 297.315 30.9998C297.315 36.4434 299.051 40.7658 302.523 44.1563C305.995 47.5602 310.483 49.2622 315.99 49.2622C321.048 49.2622 325.957 47.7223 330.731 44.6696L337.471 55.3676C331.111 59.7846 323.855 61.9999 315.732 61.9999" fill="white"/>
<path d="M404.943 1.27051V60.7178H391.733V37.6197C391.733 36.377 391.869 35.526 392.154 35.0667L391.978 34.9046C391.408 35.1883 390.621 35.3234 389.604 35.3234H368.705C367.566 35.3234 366.766 35.1883 366.319 34.9046L366.142 35.0667C366.427 35.526 366.576 36.377 366.576 37.6197V60.7178H353.354V1.27051H366.576V20.9782C366.576 22.2749 366.427 23.1529 366.142 23.6122L366.319 23.7878C366.766 23.5041 367.566 23.3556 368.705 23.3556H389.604C390.621 23.3556 391.408 23.4906 391.978 23.7878L392.154 23.6122C391.883 23.1529 391.733 22.2749 391.733 20.9782V1.27051H404.943Z" fill="white"/>
<path d="M429.691 1.27002V12.9947H407.341C406.202 12.9947 405.416 12.8596 404.968 12.5624L404.792 12.738C405.076 13.1973 405.226 14.0483 405.226 15.291V22.8553C405.226 24.044 405.076 24.8679 404.792 25.3137L404.968 25.4893C405.416 25.2056 406.216 25.057 407.341 25.057H427.209V36.7817H407.341C406.202 36.7817 405.416 36.6466 404.968 36.3495L404.792 36.5251C405.076 36.9843 405.226 37.8623 405.226 39.1591V60.7308H392.003V1.28352H429.691V1.27002Z" fill="white"/>
<path d="M472.845 0C481.932 0 489.445 2.91766 495.358 8.73947C501.271 14.5748 504.227 21.9905 504.227 30.9866C504.227 39.9827 501.271 47.412 495.358 53.2338C489.445 59.0691 481.945 61.9867 472.845 61.9867C463.745 61.9867 456.164 59.0691 450.251 53.2338C444.325 47.3984 441.382 39.9827 441.382 30.9866C441.382 21.9905 444.325 14.5748 450.251 8.73947C456.164 2.91766 463.691 0 472.845 0ZM472.845 12.7378C467.488 12.7378 463.176 14.4397 459.88 17.8301C456.598 21.2341 454.93 25.6241 454.93 30.9866C454.93 36.3492 456.585 40.7527 459.88 44.1566C463.176 47.547 467.488 49.249 472.845 49.249C478.202 49.249 482.42 47.547 485.715 44.1566C489.011 40.7662 490.665 36.3762 490.665 30.9866C490.665 25.5971 489.011 21.2206 485.715 17.8301C482.42 14.4397 478.121 12.7378 472.845 12.7378Z" fill="white"/>
<path d="M543.255 1.27067C549.629 1.27067 554.579 2.75652 558.092 5.72821C561.618 8.6999 563.368 12.8738 563.368 18.2498C563.368 22.8965 561.998 26.8137 559.231 30.015C556.478 33.2163 553.142 34.8102 549.223 34.8102C548.368 34.8102 547.771 34.7832 547.432 34.7292V34.8913C549.752 35.5126 551.976 37.1471 554.078 39.8216L570.786 60.7044H554.674L536.271 36.161C535.634 36.161 535.078 36.08 534.562 35.9044C534.06 35.7423 533.599 35.5667 533.206 35.3911L533.03 35.5532C533.545 36.7418 533.803 38.2412 533.803 40.0647V60.6909H520.58V1.24365H543.269L543.255 1.27067ZM533.545 12.1444L533.369 12.3199C533.654 12.7792 533.803 13.6302 533.803 14.8729V23.4503C533.803 24.747 533.654 25.625 533.369 26.0843L533.545 26.2464C533.925 25.9627 534.739 25.8276 535.932 25.8276H543.174C545.344 25.8276 547.026 25.2333 548.246 24.0446C549.467 22.8559 550.077 21.2215 550.077 19.1143C550.077 17.0071 549.467 15.4808 548.246 14.3191C547.026 13.1574 545.33 12.5901 543.174 12.5901H535.932C534.739 12.5901 533.925 12.455 533.545 12.1579" fill="white"/>
<path d="M630.673 1.27051V36.9308C630.673 44.8057 628.462 50.9247 624.068 55.2877C619.661 59.6507 613.477 61.8254 605.516 61.8254C597.555 61.8254 591.357 59.6507 586.923 55.2877C582.488 50.9247 580.277 44.8057 580.277 36.9308V1.27051H593.744V36.2554C593.744 40.2266 594.788 43.3334 596.904 45.6027C599.006 47.872 601.868 49.0066 605.516 49.0066C609.164 49.0066 611.958 47.8585 614.087 45.5622C616.216 43.2659 617.274 40.1726 617.274 36.2689V1.28401H630.673V1.27051Z" fill="white"/>
<path d="M680.46 61.3116L667.495 34.7285C666.247 32.0134 665.569 29.6361 665.447 27.5964H665.121C664.945 29.9197 664.457 32.3511 663.67 34.904L655.14 60.7172H640.724L662.897 0.418945H665.284L679.7 32.4322C680.432 34.1341 680.948 36.0792 681.233 38.2945H681.572C681.856 36.0792 682.358 34.1341 683.104 32.4322L697.52 0.418945H699.826L721.999 60.7172H707.678L699.148 34.904C698.361 32.3511 697.873 29.9197 697.697 27.5964H697.358C697.236 29.6361 696.53 32.0134 695.228 34.7285L682.358 61.3116H680.487H680.46Z" fill="white"/>
</svg>
